 <svg version="1.0" xmlns="http://www.w3.org/2000/svg" width="700.000000pt" height="400.000000pt" viewBox="0 0 700.000000 400.000000" preserveAspectRatio="xMidYMid meet">
<metadata>
Created by potrace 1.12, written by Peter Selinger 2001-2015
</metadata>
<g transform="translate(0.000000,400.000000) scale(0.100000,-0.100000)" fill="#2e8eb3" stroke="none">
<path d="M2087 3772 c-19 -20 -29 -85 -58 -357 -21 -200 -41 -376 -62 -561
-12 -103 -15 -114 -46 -149 -30 -35 -32 -41 -25 -79 5 -23 9 -81 9 -131 l0
-90 -32 -3 c-48 -5 -55 -27 -53 -156 4 -163 1 -194 -17 -229 -11 -21 -19 -75
-25 -157 -16 -237 -20 -263 -36 -289 -14 -20 -18 -62 -23 -211 -3 -102 -11
-197 -17 -212 -16 -38 -23 -119 -30 -343 l-7 -200 -100 -1 c-318 -5 -691 -18
-1417 -51 -144 -6 -148 -7 -148 -28 0 -22 3 -23 68 -19 37 3 87 7 112 10 25 2
139 7 255 10 121 3 219 9 232 16 20 10 40 9 106 -8 16 -4 45 -1 65 5 22 7 149
13 317 17 154 2 309 6 345 7 36 1 96 0 134 -3 l69 -5 3 150 c6 238 18 408 31
430 6 12 14 102 18 215 6 188 8 196 31 221 23 24 24 28 12 84 -10 52 -10 59 7
71 16 12 18 27 16 128 -2 108 -1 118 23 159 20 34 26 57 26 103 0 33 -5 65
-10 70 -7 7 -10 47 -8 100 3 74 6 89 20 92 11 2 24 -10 38 -38 11 -22 25 -38
30 -35 17 11 12 267 -6 310 -22 53 -16 70 26 70 l35 0 7 115 c7 129 23 285 32
315 4 11 11 70 16 130 5 61 14 151 19 200 14 130 24 235 25 272 1 18 6 37 12
43 23 23 36 -20 44 -150 5 -72 12 -135 15 -140 4 -6 10 -59 15 -118 4 -59 15
-163 24 -232 9 -69 21 -161 27 -205 5 -44 13 -107 17 -140 5 -33 18 -79 30
-102 28 -54 28 -86 0 -106 -20 -13 -21 -18 -10 -36 6 -11 13 -42 13 -68 1 -27
4 -61 8 -77 8 -38 31 -47 31 -12 0 34 24 34 46 1 16 -24 16 -29 0 -77 -20 -62
-20 -99 -1 -162 8 -27 15 -73 15 -102 0 -31 8 -72 21 -101 15 -34 22 -72 24
-130 1 -45 7 -88 13 -95 6 -7 10 -43 10 -78 -1 -41 5 -80 16 -105 13 -30 17
-61 14 -120 l-3 -79 135 3 c74 1 137 5 139 7 2 2 3 67 2 144 l-2 140 25 10 26
10 0 220 c0 129 -4 220 -9 220 -12 0 -19 -68 -25 -254 -5 -138 -7 -151 -28
-173 -21 -22 -23 -37 -28 -151 l-5 -127 -80 -7 c-44 -4 -86 -6 -92 -3 -8 2
-13 22 -13 48 0 23 -7 70 -16 102 -9 33 -20 98 -25 145 -19 186 -29 257 -43
310 -9 30 -16 67 -16 83 0 15 -7 57 -16 93 -15 57 -15 75 -4 133 15 79 8 98
-49 147 -33 29 -36 36 -34 80 1 27 4 68 8 92 6 32 2 54 -13 91 -20 45 -29 103
-67 426 -8 72 -19 164 -25 205 -5 41 -17 138 -25 215 -19 160 -30 213 -52 238
-20 22 -36 22 -56 -1z"></path>
<path d="M5016 3397 c-19 -14 -35 -72 -36 -128 0 -53 -17 -63 -87 -49 -33 7
-208 14 -400 17 l-343 6 -37 -26 c-38 -25 -40 -26 -263 -29 -255 -3 -271 -7
-289 -75 -6 -21 -11 -114 -12 -208 -1 -93 -4 -235 -8 -315 l-6 -145 -34 -11
c-19 -6 -40 -19 -46 -28 -9 -12 -15 -138 -20 -477 l-8 -461 -27 -32 c-27 -30
-55 -112 -62 -181 -3 -28 -6 -30 -46 -33 -39 -3 -44 0 -60 29 -44 81 -49 84
-174 89 l-113 5 0 136 c0 121 -2 139 -19 158 -16 18 -21 49 -31 220 -11 172
-23 241 -40 241 -3 0 -3 -37 0 -82 3 -46 7 -148 9 -226 4 -126 7 -146 24 -165
18 -21 19 -32 14 -175 l-5 -154 133 3 c109 3 135 1 141 -11 4 -8 14 -31 23
-51 22 -51 32 -57 111 -61 l70 -3 1 30 c1 87 17 195 30 206 11 9 15 8 18 -2 9
-30 26 -148 26 -178 0 -18 5 -31 13 -31 9 0 12 126 12 597 l0 598 51 3 51 3 6
211 c4 116 7 280 7 364 0 111 3 155 13 161 6 4 127 10 267 13 l255 5 0 23 0
24 330 -1 c181 -1 348 -6 370 -11 22 -4 74 -10 115 -12 l75 -3 5 100 5 100 31
3 c52 5 57 -11 48 -155 -4 -71 -8 -132 -9 -138 0 -5 14 -12 30 -15 35 -6 41
-25 27 -88 -12 -50 -5 -56 58 -58 68 -2 139 -15 148 -28 5 -6 5 -87 1 -181 -4
-93 -8 -359 -8 -590 -1 -231 -5 -470 -11 -532 -5 -61 -10 -295 -11 -520 l-2
-408 429 -1 c236 0 479 -4 539 -8 61 -4 171 -9 245 -11 74 -2 178 -8 230 -13
52 -5 125 -7 163 -4 56 4 67 8 67 23 0 17 -9 18 -97 17 -54 -1 -201 4 -328 10
-126 6 -320 16 -430 22 -110 5 -329 7 -486 3 -212 -4 -288 -3 -293 6 -4 6 -3
208 3 449 6 240 16 729 21 1086 l11 650 -24 24 c-17 17 -43 26 -93 34 -98 15
-94 12 -94 62 0 33 -7 52 -25 74 -25 29 -25 35 -23 152 l3 122 -28 24 c-31 26
-73 31 -101 11z"></path>
<path d="M4458 445 c-10 -10 -258 -15 -1033 -21 -415 -3 -757 -10 -767 -15
-22 -12 -65 -11 -73 1 -8 13 -141 13 -164 0 -10 -5 -74 -11 -142 -14 -68 -2
-169 -9 -224 -15 -155 -16 -293 -21 -800 -30 -259 -5 -558 -14 -665 -20 -107
-7 -256 -14 -330 -16 -213 -7 -260 -13 -260 -35 0 -17 8 -18 93 -14 50 3 139
8 197 13 58 5 137 9 175 10 39 1 203 6 365 11 162 6 405 10 540 11 135 0 308
4 385 10 77 5 199 14 270 19 72 5 198 14 280 20 177 14 211 14 1210 23 424 4
793 10 820 12 120 13 849 16 1285 6 261 -6 679 -13 928 -17 l452 -7 0 22 0 21
-322 0 c-178 1 -451 5 -608 11 -334 11 -1603 22 -1612 14z"></path>
</g>
</svg>
